<?xml version="1.0" encoding="UTF-8" standalone="no"?>
<svg
   xmlns:dc="http://purl.org/dc/elements/1.1/"
   xmlns:cc="http://creativecommons.org/ns#"
   xmlns:rdf="http://www.w3.org/1999/02/22-rdf-syntax-ns#"
   xmlns:svg="http://www.w3.org/2000/svg"
   xmlns="http://www.w3.org/2000/svg"
   xmlns:sodipodi="http://sodipodi.sourceforge.net/DTD/sodipodi-0.dtd"
   xmlns:inkscape="http://www.inkscape.org/namespaces/inkscape"
   inkscape:version="1.0 (4035a4fb49, 2020-05-01)"
   sodipodi:docname="microscope.svg"
   version="1.1"
   width="512"
   viewBox="0 0 512 512"
   height="512"
   enable-background="new 0 0 512 512"
   id="Capa_1">
  <metadata
     id="metadata75">
    <rdf:RDF>
      <cc:Work
         rdf:about="">
        <dc:format>image/svg+xml</dc:format>
        <dc:type
           rdf:resource="http://purl.org/dc/dcmitype/StillImage" />
      </cc:Work>
    </rdf:RDF>
  </metadata>
  <defs
     id="defs73" />
  <sodipodi:namedview
     inkscape:current-layer="Capa_1"
     inkscape:window-maximized="1"
     inkscape:window-y="-8"
     inkscape:window-x="-8"
     inkscape:cy="256"
     inkscape:cx="256"
     inkscape:zoom="1.0507812"
     showgrid="false"
     id="namedview71"
     inkscape:window-height="705"
     inkscape:window-width="1366"
     inkscape:pageshadow="2"
     inkscape:pageopacity="0"
     guidetolerance="10"
     gridtolerance="10"
     objecttolerance="10"
     borderopacity="1"
     bordercolor="#666666"
     pagecolor="#ffffff" />
  <g
     transform="matrix(-1,0,0,1,512,0)"
     id="g68">
    <path
       id="path2"
       fill="#d0cee7"
       d="M 212.673,80.025 H 335.81 c 8.191,0 16.046,3.254 21.837,9.045 l 56.402,56.402 c 5.792,5.792 9.045,13.647 9.045,21.837 v 194.724 c 0,8.191 -3.254,16.046 -9.045,21.837 l -45.691,45.691 c -5.792,5.792 -13.647,9.045 -21.837,9.045 H 218.914 c -3.447,0 -6.242,-2.795 -6.242,-6.242 v -79.052 c 0,-3.447 2.795,-6.242 6.242,-6.242 h 103.86 c 5.423,0 10.624,-2.154 14.459,-5.989 l 24.545,-24.545 c 3.835,-3.835 5.989,-9.036 5.989,-14.459 v -85.889 c 0,-5.545 -2.252,-10.852 -6.239,-14.705 l -24.34,-23.519 c -3.813,-3.684 -8.907,-5.743 -14.209,-5.743 H 212.673 Z" />
    <path
       id="path4"
       fill="#beb9dd"
       d="M 414.049,145.472 357.647,89.07 C 351.855,83.278 344,80.025 335.81,80.025 h -22.45 c 8.191,0 16.046,3.254 21.838,9.045 l 56.402,56.402 c 5.792,5.792 9.045,13.647 9.045,21.837 v 194.724 c 0,8.191 -3.254,16.046 -9.045,21.837 l -45.691,45.691 c -5.792,5.792 -13.647,9.045 -21.838,9.045 h 22.45 c 8.191,0 16.046,-3.254 21.837,-9.045 l 45.691,-45.691 c 5.792,-5.792 9.045,-13.647 9.045,-21.837 V 167.31 c 0,-8.191 -3.253,-16.046 -9.045,-21.838 z" />
    <path
       id="path6"
       fill="#beb9dd"
       d="m 212.673,80.025 h 18.482 v 92.199 h -18.482 z" />
    <path
       id="path8"
       fill="#26457d"
       d="M 201.051,63.956 H 127.376 V 4.563 c 0,-2.52 2.043,-4.563 4.563,-4.563 h 64.549 c 2.52,0 4.563,2.043 4.563,4.563 z" />
    <path
       id="path10"
       fill="#21386b"
       d="m 184.16,0 v 63.956 h 16.891 V 4.563 C 201.051,2.043 199.008,0 196.488,0 Z" />
    <path
       id="path12"
       fill="#7398d3"
       d="m 208.9,63.956 h -89.372 c -2.084,0 -3.773,1.689 -3.773,3.773 v 130.465 c 0,2.084 1.689,3.773 3.773,3.773 H 208.9 c 2.084,0 3.773,-1.689 3.773,-3.773 V 67.729 c 0,-2.084 -1.69,-3.773 -3.773,-3.773 z" />
    <path
       id="path14"
       fill="#707dd3"
       d="M 193.171,63.956 V 201.967 H 208.9 c 2.084,0 3.773,-1.689 3.773,-3.773 V 67.729 c 0,-2.084 -1.689,-3.773 -3.773,-3.773 z" />
    <path
       id="path16"
       fill="#d0cee7"
       d="m 138.205,201.967 h 52.018 v 46.867 h -52.018 z" />
    <path
       id="path18"
       fill="#beb9dd"
       d="m 172.776,201.967 h 17.447 v 46.867 h -17.447 z" />
    <path
       id="path20"
       fill="#26457d"
       d="M 185.281,274.307 H 83.192 c -2.729,0 -4.942,-2.213 -4.942,-4.942 v -15.589 c 0,-2.729 2.213,-4.942 4.942,-4.942 h 107.031 v 20.531 c 0,2.73 -2.213,4.942 -4.942,4.942 z" />
    <path
       id="path22"
       fill="#21386b"
       d="m 172.776,248.834 v 25.473 h 12.505 c 2.729,0 4.942,-2.213 4.942,-4.942 v -20.531 z" />
    <g
       id="g28"
       fill="#d3effb">
      <path
         id="path24"
         d="m 108.771,304.365 h -5.401 c -7.709,0 -13.959,-6.25 -13.959,-13.959 v -16.099 h 33.32 v 16.099 c 0,7.71 -6.25,13.959 -13.96,13.959 z" />
      <path
         id="path26"
         d="m 165.102,304.365 h -5.401 c -7.709,0 -13.959,-6.25 -13.959,-13.959 v -16.099 h 33.32 v 16.099 c 0,7.71 -6.25,13.959 -13.96,13.959 z" />
    </g>
    <path
       id="path30"
       fill="#26457d"
       d="M 461.361,512 H 63.245 c -2.512,0 -4.548,-2.036 -4.548,-4.548 v -16.261 c 0,-11.865 9.619,-21.484 21.484,-21.484 h 364.244 c 11.865,0 21.484,9.619 21.484,21.484 v 16.261 c 0,2.512 -2.036,4.548 -4.548,4.548 z" />
    <path
       id="path32"
       fill="#21386b"
       d="m 444.425,469.708 h -22.897 c 11.865,0 21.484,9.618 21.484,21.484 V 512 h 18.349 c 2.512,0 4.548,-2.036 4.548,-4.548 v -16.261 c 0,-11.864 -9.619,-21.483 -21.484,-21.483 z" />
    <path
       id="path34"
       fill="#26457d"
       d="M 212.673,398.197 H 72.719 c -14.706,0 -26.628,-11.922 -26.628,-26.628 v -3.792 c 0,-1.743 1.413,-3.155 3.155,-3.155 h 163.426 v 33.575 z" />
    <path
       id="path36"
       fill="#21386b"
       d="m 193.171,364.621 h 19.502 v 33.576 h -19.502 z" />
    <path
       id="path38"
       fill="#7398d3"
       d="M 379.658,469.708 H 269.015 v -40.937 c 0,-30.553 24.768,-55.321 55.321,-55.321 30.553,0 55.321,24.768 55.321,55.321 v 40.937 z" />
    <path
       id="path40"
       fill="#707dd3"
       d="m 324.336,373.45 c -3.879,0 -7.664,0.403 -11.318,1.163 25.124,5.224 44.004,27.485 44.004,54.159 v 40.937 h 22.636 v -40.937 c 0,-30.554 -24.769,-55.322 -55.322,-55.322 z" />
    <g
       id="g50">
      <g
         id="g44">
        <path
           id="path42"
           fill="#a7a2d3"
           d="m 249.433,115.331 h -6.109 c -4.268,0 -7.726,-3.459 -7.726,-7.726 0,-4.267 3.459,-7.726 7.726,-7.726 h 6.109 c 4.268,0 7.726,3.459 7.726,7.726 0.001,4.267 -3.458,7.726 -7.726,7.726 z" />
      </g>
      <g
         id="g48">
        <path
           id="path46"
           fill="#a7a2d3"
           d="m 249.433,153.61 h -6.109 c -4.268,0 -7.726,-3.459 -7.726,-7.726 0,-4.267 3.459,-7.726 7.726,-7.726 h 6.109 c 4.268,0 7.726,3.459 7.726,7.726 0,4.267 -3.458,7.726 -7.726,7.726 z" />
      </g>
    </g>
    <g
       id="g60">
      <g
         id="g54">
        <path
           id="path52"
           fill="#d0cee7"
           d="m 150.457,48.041 c -4.268,0 -7.726,-3.459 -7.726,-7.726 V 23.641 c 0,-4.267 3.459,-7.726 7.726,-7.726 4.267,0 7.726,3.459 7.726,7.726 v 16.674 c 0.001,4.267 -3.458,7.726 -7.726,7.726 z" />
      </g>
      <g
         id="g58">
        <path
           id="path56"
           fill="#d0cee7"
           d="m 177.969,48.041 c -4.268,0 -7.726,-3.459 -7.726,-7.726 V 23.641 c 0,-4.267 3.459,-7.726 7.726,-7.726 4.268,0 7.726,3.459 7.726,7.726 v 16.674 c 0.001,4.267 -3.458,7.726 -7.726,7.726 z" />
      </g>
    </g>
    <path
       id="path62"
       fill="#21386b"
       d="m 148.347,426.147 h -32.188 c -3.969,0 -7.187,-3.218 -7.187,-7.187 v -20.763 h 46.563 v 20.763 c -0.001,3.969 -3.218,7.187 -7.188,7.187 z" />
    <g
       id="g66">
      <path
         id="path64"
         fill="#707dd3"
         d="m 324.336,429.305 c -4.268,0 -7.726,-3.459 -7.726,-7.726 v -9.406 c 0,-4.268 3.459,-7.726 7.726,-7.726 4.267,0 7.726,3.459 7.726,7.726 v 9.406 c 0,4.267 -3.459,7.726 -7.726,7.726 z" />
    </g>
  </g>
</svg>
