<svg id="Layer_1" height="512" viewBox="0 0 512 512" width="512" xmlns="http://www.w3.org/2000/svg" data-name="Layer 1"><path d="m260.25 125.36c-21.51-48.1-29.84-88.03-29.84-88.03a6.8 6.8 0 0 0 -2.98-.69q.54 3.33 1.05 6.62c16.49 105.56 16.94 176.88 19.15 217.5l.17.28 59.36-32.67c-24.18-68.42-33.09-72.11-46.91-103.01z" fill="#aa72a2"/><g fill="#845b84"><path d="m336.21 192.88v.01a9.2 9.2 0 0 0 -1.6 3.35 44.228 44.228 0 0 1 -13.64 23.06 44.886 44.886 0 0 1 -5.26 3.96c-2.54 1.64-5.41 3.34-8.55 5.11-24.18-68.42-33.09-72.11-46.91-103.01-21.51-48.1-29.84-88.03-29.84-88.03a6.579 6.579 0 0 1 .92.55 6.678 6.678 0 0 1 2.48 3.25c5.54 15.61 25.78 68.44 57.42 104.02 12.12 13.64 33.36 29.79 44.98 47.73z"/><path d="m247.8 261.04-.17-.28c-2.21-40.62-2.66-111.94-19.15-217.5q-.51-3.285-1.05-6.62c-21.82 141.63-44 141.63-70.44 206.03-21.57 52.52-20.33 141.86 23.99 230.96a304.678 304.678 0 0 0 84.3-2.72v-.01z"/><path d="m88.28 446.44c-75.05-41.01-86.49-125.68-57.9-193.19 22.3-52.66 78.94-89.98 107.97-108.1 59.27-36.99 77.99-87.78 82.57-103.6a6.768 6.768 0 0 1 6.51-4.91s-1.72 4.66-5.13 12.48c-10.23 23.52-35.65 75.63-75.27 116.01-81.63 83.21-100.83 194.17-26.44 294.9a177.1 177.1 0 0 1 -32.31-13.59z"/></g><path d="m222.3 49.12c3.41-7.82 5.13-12.48 5.13-12.48-21.82 141.63-44 141.63-70.44 206.03-21.57 52.52-20.33 141.86 23.99 230.96a289.842 289.842 0 0 1 -30.23-4.86v-.01c-19.13-4.15-30.16-8.73-30.16-8.73-74.39-100.73-55.19-211.69 26.44-294.9 39.62-40.38 65.04-92.49 75.27-116.01z" fill="#aa72a2"/><path d="m359.79 214.13c34.35 37.51 185.83 79.16 119.68 196.19-21.91 38.78-56.47 58.16-97.62 61.62 112.43-56.87 96.05-150.57 27.29-202.4-33.2-25.03-53.79-60.32-54.26-61.14l-.01-.01c-.55-3.01-1-5.82-1.41-8.37.89 5.43 2.85 10.31 6.33 14.11z" fill="#d3b3ea"/><path d="m409.14 269.54c68.76 51.83 85.14 145.53-27.29 202.4a172.518 172.518 0 0 1 -28.39-.02c101.28-56.87 84.25-143.95 28.79-203.34-18.1-19.39-24.25-43.01-27.37-60.18.47.82 21.06 36.11 54.26 61.14z" fill="#bd9edb"/><path d="m382.25 268.58c55.46 59.39 72.49 146.47-28.79 203.34-3.07-.23-6.17-.55-9.29-.94v-.01s69.18-54.64 30.52-168.19c-28.89-84.84-28.46-113.33-28.46-113.33a9.338 9.338 0 0 1 6.89 8.01c.08.82.19 1.63.32 2.43.01.04.01.08.02.13.41 2.55.86 5.36 1.41 8.37l.01.01c3.12 17.17 9.27 40.79 27.37 60.18z" fill="#d3b3ea"/><path d="m374.69 302.78c38.66 113.55-30.52 168.19-30.52 168.19v.01c-1.56-.2-3.12-.41-4.69-.64l4.68-281.22a8.86 8.86 0 0 1 2.07.33s-.43 28.49 28.46 113.33z" fill="#bd9edb"/><path d="m344.16 189.12-4.68 281.22q-5.235.765-10.36 1.37s-74.18-63.57-34.18-143.1c44.17-87.81 48.45-138.65 48.52-139.49.23-.01.47-.01.7 0z" fill="#d3b3ea"/><path d="m343.46 189.12c-.07.84-4.35 51.68-48.52 139.49-40 79.53 34.18 143.1 34.18 143.1-6.93.83-13.73 1.43-20.38 1.76-101.3-56.87-77.36-150.43-16.27-204.02 40.8-35.79 43.68-75.68 43.74-76.56v-.01a9.4 9.4 0 0 1 7.25-3.76z" fill="#bd9edb"/><path d="m334.61 196.24a9.2 9.2 0 0 1 1.6-3.35c-.06.88-2.94 40.77-43.74 76.56-61.09 53.59-85.03 147.15 16.27 204.02a194.651 194.651 0 0 1 -32.71-.88c-112.43-56.87-86.32-154.83-15.05-203.14 29.4-19.93 59.99-50.15 59.99-50.15a44.228 44.228 0 0 0 13.64-23.06z" fill="#d3b3ea"/><path d="m60.38 253.25c20.536-48.495 70.178-83.967 100.577-103.428 31.695-37.422 52.367-80.066 61.343-100.702 3.41-7.82 5.13-12.48 5.13-12.48a6.768 6.768 0 0 0 -6.51 4.91c-4.58 15.82-23.3 66.61-82.57 103.6-29.03 18.12-85.67 55.44-107.97 108.1-28.59 67.51-17.15 152.18 57.9 193.19a177.1 177.1 0 0 0 32.31 13.59q-7.533-10.2-13.783-20.532c-64.674-43.07-73.49-122.343-46.427-186.248z" fill="#654666"/><path d="m152 192.114a3 3 0 0 1 -2.183-5.057c51.853-55.01 69.38-137.713 69.551-138.542a3 3 0 0 1 5.877 1.212c-.123.591-21.369 88.728-71.061 141.445a3 3 0 0 1 -2.184.942z" fill="#93638e"/><path d="m261.7 183.706a3 3 0 0 1 -2.906-2.264l-34.45-136.221a3 3 0 0 1 5.817-1.471l34.454 136.22a3 3 0 0 1 -2.911 3.736z" fill="#93638e"/><path d="m178.484 344.129a3 3 0 0 1 -2.942-2.43c-6.963-35.869 6.684-63.209 7.268-64.355a3 3 0 0 1 5.347 2.722c-.159.315-13.272 26.763-6.725 60.491a3 3 0 0 1 -2.373 3.516 3.068 3.068 0 0 1 -.575.056z" fill="#503a51"/><path d="m315.71 223.26a44.886 44.886 0 0 0 5.26-3.96s-30.59 30.22-59.99 50.15c-71.27 48.31-97.38 146.27 15.05 203.14q-5.475-.645-10.75-1.69c-29.09-5.75-53.33-20.82-70.56-50.95-17.57-30.74-21.25-56.71-16.23-78.82v-.01c8-35.3 38.15-60.76 69.31-80.08 21.67-13.44 43.83-23.92 59.36-32.67 3.14-1.77 6.01-3.47 8.55-5.11z" fill="#bd9edb"/><path d="m90.529 444.447c-34.529-37.978-43.492-78.17-44.929-105.199-1.559-29.382 5.173-50.049 5.241-50.254a3 3 0 0 0 -5.692-1.9c-.292.874-7.123 21.753-5.554 52.2 1.363 26.466 9.664 65.067 40.6 102.392q3.914 2.457 8.078 4.747c.879.482 1.777.95 2.674 1.42a3 3 0 0 0 -.418-3.406z" fill="#503a51"/><path d="m153.219 467.069c-37.619-54.814-46.443-100.242-47.219-128.699-.835-30.743 6.056-47.617 6.16-47.843.693-1.5 1.261-4.507-.241-5.2a3 3 0 0 0 -3.983 1.463c-.357.772-8.737 19.269-7.944 51.322.714 28.883 9.553 74.658 46.6 129.685 1.378.323 2.4.646 4.4.966v.01c1 .206 1.808.411 2.8.614a3.065 3.065 0 0 0 -.573-2.318z" fill="#93638e"/><path d="m219.2 195.876a3.014 3.014 0 0 0 3.151-2.842l6.545-126.61.765-15.467c-.386-2.551-.773-5.105-1.178-7.7q-.51-3.285-1.05-6.62c-1.457 9.456-2.915 18.262-4.377 26.517l-6.7 129.568a3 3 0 0 0 2.844 3.154z" fill="#503a51"/></svg>