<?xml version="1.0" encoding="UTF-8" standalone="no"?>
<svg
   xmlns:dc="http://purl.org/dc/elements/1.1/"
   xmlns:cc="http://creativecommons.org/ns#"
   xmlns:rdf="http://www.w3.org/1999/02/22-rdf-syntax-ns#"
   xmlns:svg="http://www.w3.org/2000/svg"
   xmlns="http://www.w3.org/2000/svg"
   xmlns:sodipodi="http://sodipodi.sourceforge.net/DTD/sodipodi-0.dtd"
   xmlns:inkscape="http://www.inkscape.org/namespaces/inkscape"
   inkscape:version="1.0 (4035a4fb49, 2020-05-01)"
   sodipodi:docname="recovery.svg"
   version="1.1"
   width="512"
   viewBox="0 0 512 512"
   height="512"
   enable-background="new 0 0 512 512"
   id="Capa_1">
  <metadata
     id="metadata29">
    <rdf:RDF>
      <cc:Work
         rdf:about="">
        <dc:format>image/svg+xml</dc:format>
        <dc:type
           rdf:resource="http://purl.org/dc/dcmitype/StillImage" />
      </cc:Work>
    </rdf:RDF>
  </metadata>
  <defs
     id="defs27" />
  <sodipodi:namedview
     inkscape:current-layer="Recovery_2_"
     inkscape:window-maximized="1"
     inkscape:window-y="-8"
     inkscape:window-x="-8"
     inkscape:cy="349.38032"
     inkscape:cx="296.04091"
     inkscape:zoom="0.52539063"
     showgrid="false"
     id="namedview25"
     inkscape:window-height="705"
     inkscape:window-width="1366"
     inkscape:pageshadow="2"
     inkscape:pageopacity="0"
     guidetolerance="10"
     gridtolerance="10"
     objecttolerance="10"
     borderopacity="1"
     bordercolor="#666666"
     pagecolor="#ffffff" />
  <g
     id="Recovery_2_">
    <g
       transform="matrix(0.82125182,0,0,0.82125182,45.759535,45.759535)"
       id="g15">
      <path
         id="path2"
         fill="#6cf"
         d="m 255.781,30 c 70.972,0 137.582,33.977 179.804,90 h -44.218 v 30 h 87.275 V 60 h -30 V 89.028 C 400.645,33.468 330.466,0 255.781,0 234.218,0 212.773,2.695 192.031,8.027 l 7.5,29.063 C 217.783,32.388 236.738,30 255.781,30 Z" />
      <path
         id="path4"
         fill="#59abff"
         d="m 435.585,120 h -44.218 v 30 h 87.275 V 60 h -30 V 89.028 C 400.645,33.468 330.466,0 255.781,0 v 30 c 70.972,0 137.582,33.977 179.804,90 z" />
      <path
         id="path6"
         fill="#59abff"
         d="m 512,256 c 0,-21.533 -2.695,-42.979 -8.027,-63.735 l -29.063,7.471 c 4.717,18.31 7.09,37.25 7.09,56.264 0,70.968 -33.979,137.587 -90,179.795 v -44.326 h -30 v 87.319 h 90 v -30 H 423.057 C 478.552,400.798 512,330.65 512,256 Z" />
      <path
         id="path8"
         fill="#6cf"
         d="m 255.781,482 c -70.959,0 -137.584,-33.975 -179.81,-90 h 44.282 V 362 H 32.832 v 90 h 30 v -29.13 c 47.997,55.616 118.209,89.13 192.949,89.13 21.563,0 43.008,-2.695 63.75,-8.027 l -7.5,-29.063 c -18.252,4.702 -37.207,7.09 -56.25,7.09 z" />
      <g
         id="Recovery_3_">
        <path
           id="path10"
           fill="#59abff"
           d="m 319.531,503.973 -7.5,-29.063 c -18.252,4.702 -37.207,7.09 -56.25,7.09 v 30 c 21.563,0 43.008,-2.695 63.75,-8.027 z" />
      </g>
      <path
         id="path13"
         fill="#6cf"
         d="M 30,256 C 30,185.025 63.979,118.394 120,76.179 v 44.293 h 30 V 33.021 H 60 v 30 H 89.165 C 33.525,111.015 0,181.249 0,256 c 0,21.533 2.695,42.979 8.027,63.735 L 37.09,312.264 C 32.373,293.954 30,275.014 30,256 Z" />
    </g>
    <g
       id="g19">
      <path
         style="fill:#ffffff"
         id="path17"
         fill="#465d8c"
         d="m360.984 247.577 34.805-20.098-45-77.959-35.098 20.288c-4.57-3.149-9.346-5.918-14.297-8.291v-40.517h-90v40.518c-4.951 2.373-9.727 5.142-14.297 8.291l-35.097-20.288-45 77.959 34.805 20.098c-.531 5.58-.561 10.951 0 16.846l-34.805 20.097 45 77.959 35.098-20.288c4.57 3.149 9.346 5.918 14.297 8.291v40.517h90v-40.518c4.951-2.373 9.727-5.142 14.297-8.291l35.098 20.288 45-77.959-34.805-20.098c.531-5.579.561-10.95-.001-16.845zm-104.589 53.423c-24.814 0-45-20.186-45-45s20.186-45 45-45 45 20.186 45 45-20.186 45-45 45z" />
    </g>
    <path
       style="fill:#ececec"
       id="path21"
       fill="#333b66"
       d="m301.395 350.482c4.951-2.373 9.727-5.142 14.297-8.291l35.098 20.288 45-77.959-34.805-20.098c.531-5.581.562-10.952 0-16.846l34.805-20.098-45-77.959-35.098 20.288c-4.57-3.149-9.346-5.918-14.297-8.291v-40.516h-45v90c24.814 0 45 20.186 45 45s-20.186 45-45 45v90h45z" />
  </g>
</svg>
