<?xml version="1.0" encoding="UTF-8" standalone="no"?>
<svg
   xmlns:dc="http://purl.org/dc/elements/1.1/"
   xmlns:cc="http://creativecommons.org/ns#"
   xmlns:rdf="http://www.w3.org/1999/02/22-rdf-syntax-ns#"
   xmlns:svg="http://www.w3.org/2000/svg"
   xmlns="http://www.w3.org/2000/svg"
   xmlns:sodipodi="http://sodipodi.sourceforge.net/DTD/sodipodi-0.dtd"
   xmlns:inkscape="http://www.inkscape.org/namespaces/inkscape"
   sodipodi:docname="drawing.svg.2021_05_19_12_53_28.0.svg"
   inkscape:version="1.0 (4035a4fb49, 2020-05-01)"
   id="svg8"
   version="1.1"
   viewBox="0 0 210 297"
   height="297mm"
   width="210mm">
  <defs
     id="defs2" />
  <sodipodi:namedview
     inkscape:window-maximized="1"
     inkscape:window-y="-8"
     inkscape:window-x="-8"
     inkscape:window-height="705"
     inkscape:window-width="1366"
     showgrid="false"
     inkscape:document-rotation="0"
     inkscape:current-layer="layer1"
     inkscape:document-units="mm"
     inkscape:cy="489.53928"
     inkscape:cx="-145.78096"
     inkscape:zoom="0.5"
     inkscape:pageshadow="2"
     inkscape:pageopacity="0.0"
     borderopacity="1.0"
     bordercolor="#666666"
     pagecolor="#ffffff"
     id="base" />
  <metadata
     id="metadata5">
    <rdf:RDF>
      <cc:Work
         rdf:about="">
        <dc:format>image/svg+xml</dc:format>
        <dc:type
           rdf:resource="http://purl.org/dc/dcmitype/StillImage" />
        <dc:title />
      </cc:Work>
    </rdf:RDF>
  </metadata>
  <g
     id="layer1"
     inkscape:groupmode="layer"
     inkscape:label="Layer 1">
    <rect
       ry="18"
       y="22.151897"
       x="14.339777"
       height="176.39789"
       width="176.39789"
       id="rect1043"
       style="opacity:1;fill:#35b6ef;fill-opacity:1;fill-rule:nonzero;stroke:none;stroke-width:5.54622;stroke-linecap:round;stroke-linejoin:round;stroke-miterlimit:4;stroke-dasharray:none;stroke-opacity:1" />
    <circle
       id="circle995"
       style="opacity:1;fill:#ff3a33;fill-opacity:1;stroke:#ff3a33;stroke-width:16;stroke-linecap:round;stroke-linejoin:round;stroke-miterlimit:4;stroke-dasharray:none;stroke-opacity:1"
       cx="102.53872"
       cy="110.35084"
       r="70.695305" />
    <circle
       r="70.369637"
       cy="110.35084"
       cx="102.53872"
       style="opacity:1;fill:#fffbbe;fill-opacity:1;stroke:#fe5e49;stroke-width:8.50882;stroke-linecap:round;stroke-linejoin:round;stroke-miterlimit:4;stroke-dasharray:none;stroke-opacity:1"
       id="circle889" />
    <path
       id="path59"
       style="color:#000000;font-style:normal;font-variant:normal;font-weight:normal;font-stretch:normal;font-size:medium;line-height:normal;font-family:sans-serif;font-variant-ligatures:normal;font-variant-position:normal;font-variant-caps:normal;font-variant-numeric:normal;font-variant-alternates:normal;font-variant-east-asian:normal;font-feature-settings:normal;font-variation-settings:normal;text-indent:0;text-align:start;text-decoration:none;text-decoration-line:none;text-decoration-style:solid;text-decoration-color:#000000;letter-spacing:normal;word-spacing:normal;text-transform:none;writing-mode:lr-tb;direction:ltr;text-orientation:mixed;dominant-baseline:auto;baseline-shift:baseline;text-anchor:start;white-space:normal;shape-padding:0;shape-margin:0;inline-size:0;clip-rule:nonzero;display:inline;overflow:visible;visibility:visible;opacity:1;isolation:auto;mix-blend-mode:normal;color-interpolation:sRGB;color-interpolation-filters:linearRGB;solid-color:#000000;solid-opacity:1;vector-effect:none;fill:#7eb11f;fill-opacity:1;fill-rule:nonzero;stroke:#5f9412;stroke-width:7.55906;stroke-linecap:round;stroke-linejoin:round;stroke-miterlimit:4;stroke-dasharray:none;stroke-dashoffset:0;stroke-opacity:1;color-rendering:auto;image-rendering:auto;shape-rendering:auto;text-rendering:auto;enable-background:accumulate;stop-color:#000000;stop-opacity:1"
       d="M 484.93164 221.9668 A 15.731243 15.731243 0 0 0 471.05273 230.18164 A 15.731243 15.731243 0 0 0 477.35742 251.51562 C 540.1771 285.68303 578.21976 352.37364 575.6543 423.83789 C 573.47298 484.60207 542.25472 539.8089 492.93359 573.16016 L 470.39844 542.94336 C 511.21706 515.89722 538.21291 469.56039 538.21289 417.07617 A 15.731243 15.731243 0 0 0 522.48242 401.3457 A 15.731243 15.731243 0 0 0 506.75195 417.07617 C 506.75196 429.06275 504.99353 440.62418 501.73438 451.52539 L 423.41016 406.30664 A 15.731243 15.731243 0 0 0 415.35742 404.20312 A 15.731243 15.731243 0 0 0 401.92188 412.06445 A 15.731243 15.731243 0 0 0 407.67969 433.55273 L 488.72266 480.3418 C 467.66261 514.11291 430.19256 536.50781 387.3125 536.50781 A 15.731243 15.731243 0 0 0 371.58203 552.23828 A 15.731243 15.731243 0 0 0 387.3125 567.9707 C 406.63381 567.9707 425.12174 564.30885 442.12305 557.65039 L 465.25195 588.66406 C 400.14527 618.23595 324.00779 608.43906 268.50195 563.35547 A 15.731243 15.731243 0 0 0 246.37109 565.65234 A 15.731243 15.731243 0 0 0 248.6582 587.7832 C 313.37616 640.34917 402.36193 651.78525 478.27344 617.30273 C 554.18495 582.82029 604.10259 508.28349 607.09375 424.96094 C 610.08491 341.63836 565.63807 263.71583 492.39453 223.87891 A 15.731243 15.731243 0 0 0 484.93164 221.9668 z "
       transform="scale(0.26458333)" />
    <path
       id="path904"
       style="color:#000000;font-style:normal;font-variant:normal;font-weight:normal;font-stretch:normal;font-size:medium;line-height:normal;font-family:sans-serif;font-variant-ligatures:normal;font-variant-position:normal;font-variant-caps:normal;font-variant-numeric:normal;font-variant-alternates:normal;font-variant-east-asian:normal;font-feature-settings:normal;font-variation-settings:normal;text-indent:0;text-align:start;text-decoration:none;text-decoration-line:none;text-decoration-style:solid;text-decoration-color:#000000;letter-spacing:normal;word-spacing:normal;text-transform:none;writing-mode:lr-tb;direction:ltr;text-orientation:mixed;dominant-baseline:auto;baseline-shift:baseline;text-anchor:start;white-space:normal;shape-padding:0;shape-margin:0;inline-size:0;clip-rule:nonzero;display:inline;overflow:visible;visibility:visible;opacity:1;isolation:auto;mix-blend-mode:normal;color-interpolation:sRGB;color-interpolation-filters:linearRGB;solid-color:#000000;solid-opacity:1;vector-effect:none;fill:#3ac7cf;fill-opacity:1;fill-rule:nonzero;stroke:#298c92;stroke-width:7.55905522;stroke-linecap:round;stroke-linejoin:round;stroke-miterlimit:4;stroke-dasharray:none;stroke-dashoffset:0;stroke-opacity:1;color-rendering:auto;image-rendering:auto;shape-rendering:auto;text-rendering:auto;enable-background:accumulate;stop-color:#000000;stop-opacity:1"
       d="M 387.3125 197.15625 C 318.95436 197.15626 254.4556 228.95924 212.8418 283.19141 C 171.22799 337.42358 157.19238 407.96132 174.88477 473.99023 A 15.731243 15.731243 0 0 0 194.15039 485.11523 A 15.731243 15.731243 0 0 0 205.27539 465.84961 C 190.10787 409.24366 202.12565 348.84038 237.80078 302.34766 C 251.51174 284.47919 268.11941 269.46922 286.68945 257.74219 L 309.25781 288.00391 C 265.64149 314.49778 236.41993 362.46351 236.41992 417.07617 A 15.731243 15.731243 0 0 0 252.15039 432.80664 A 15.731243 15.731243 0 0 0 253.81445 432.71875 A 15.731243 15.731243 0 0 0 253.82617 432.7168 A 15.731243 15.731243 0 0 0 257.32617 432.20312 L 351.80664 407.10352 A 15.731243 15.731243 0 0 0 362.9668 387.85938 A 15.731243 15.731243 0 0 0 347.64258 376.16602 A 15.731243 15.731243 0 0 0 343.73047 376.69727 L 269.66016 396.36914 C 279.41624 340.15305 328.23069 297.63868 387.3125 297.63867 A 15.731243 15.731243 0 0 0 403.04297 281.90625 A 15.731243 15.731243 0 0 0 387.3125 266.17578 C 370.17686 266.17578 353.69885 269.05933 338.33008 274.35547 L 314.99023 243.05859 C 337.62537 233.651 362.15506 228.61719 387.3125 228.61719 A 15.731243 15.731243 0 0 0 403.04297 212.88672 A 15.731243 15.731243 0 0 0 387.3125 197.15625 z "
       transform="scale(0.26458333)" />
    <circle
       r="7.6743064"
       cy="130.5248"
       cx="68.797188"
       id="path881"
       style="opacity:1;fill:#e97b3b;fill-opacity:1;stroke:#e96c24;stroke-width:2;stroke-linecap:round;stroke-linejoin:round;stroke-miterlimit:4;stroke-dasharray:none;stroke-opacity:1" />
    <path
       id="circle883"
       style="opacity:1;fill:#e97b3b;fill-opacity:1;stroke:#e96c24;stroke-width:2;stroke-linecap:round;stroke-linejoin:round;stroke-miterlimit:4;stroke-dasharray:none;stroke-opacity:1"
       d="m 90.118767,134.89311 a 4.9755249,4.9755249 0 0 1 -4.975525,4.97553 4.9755249,4.9755249 0 0 1 -4.975525,-4.97553 4.9755249,4.9755249 0 0 1 4.975525,-4.97552 4.9755249,4.9755249 0 0 1 4.975525,4.97552" />
    <path
       id="circle895"
       style="opacity:1;fill:#e97b3b;fill-opacity:1;stroke:#e96c24;stroke-width:2;stroke-linecap:round;stroke-linejoin:round;stroke-miterlimit:4;stroke-dasharray:none;stroke-opacity:1"
       d="m 91.484603,146.34462 a 3.2644417,3.2644417 0 0 1 -3.264442,3.26444 3.2644417,3.2644417 0 0 1 -3.264441,-3.26444 3.2644417,3.2644417 0 0 1 3.264441,-3.26444 3.2644417,3.2644417 0 0 1 3.264442,3.26444" />
    <g
       id="g993">
      <path
         style="color:#000000;font-style:normal;font-variant:normal;font-weight:normal;font-stretch:normal;font-size:medium;line-height:normal;font-family:sans-serif;font-variant-ligatures:normal;font-variant-position:normal;font-variant-caps:normal;font-variant-numeric:normal;font-variant-alternates:normal;font-variant-east-asian:normal;font-feature-settings:normal;font-variation-settings:normal;text-indent:0;text-align:start;text-decoration:none;text-decoration-line:none;text-decoration-style:solid;text-decoration-color:#000000;letter-spacing:normal;word-spacing:normal;text-transform:none;writing-mode:lr-tb;direction:ltr;text-orientation:mixed;dominant-baseline:auto;baseline-shift:baseline;text-anchor:start;white-space:normal;shape-padding:0;shape-margin:0;inline-size:0;clip-rule:nonzero;display:inline;overflow:visible;visibility:visible;isolation:auto;mix-blend-mode:normal;color-interpolation:sRGB;color-interpolation-filters:linearRGB;solid-color:#000000;solid-opacity:1;vector-effect:none;fill:#f87702;fill-opacity:1;fill-rule:nonzero;stroke:#e36c00;stroke-width:5.12346;stroke-linecap:round;stroke-linejoin:miter;stroke-miterlimit:4;stroke-dasharray:none;stroke-dashoffset:0;stroke-opacity:1;color-rendering:auto;image-rendering:auto;shape-rendering:auto;text-rendering:auto;enable-background:accumulate;stop-color:#000000"
         d="m 118.9731,81.566343 12.12367,9.927088"
         id="path927" />
      <path
         style="color:#000000;font-style:normal;font-variant:normal;font-weight:normal;font-stretch:normal;font-size:medium;line-height:normal;font-family:sans-serif;font-variant-ligatures:normal;font-variant-position:normal;font-variant-caps:normal;font-variant-numeric:normal;font-variant-alternates:normal;font-variant-east-asian:normal;font-feature-settings:normal;font-variation-settings:normal;text-indent:0;text-align:start;text-decoration:none;text-decoration-line:none;text-decoration-style:solid;text-decoration-color:#000000;letter-spacing:normal;word-spacing:normal;text-transform:none;writing-mode:lr-tb;direction:ltr;text-orientation:mixed;dominant-baseline:auto;baseline-shift:baseline;text-anchor:start;white-space:normal;shape-padding:0;shape-margin:0;inline-size:0;clip-rule:nonzero;display:inline;overflow:visible;visibility:visible;isolation:auto;mix-blend-mode:normal;color-interpolation:sRGB;color-interpolation-filters:linearRGB;solid-color:#000000;solid-opacity:1;vector-effect:none;fill:#fffea2;fill-opacity:1;fill-rule:nonzero;stroke:#e36c00;stroke-width:4;stroke-linecap:round;stroke-linejoin:miter;stroke-miterlimit:4;stroke-dasharray:none;stroke-dashoffset:0;stroke-opacity:1;color-rendering:auto;image-rendering:auto;shape-rendering:auto;text-rendering:auto;enable-background:accumulate;stop-color:#000000"
         d="m 118.91492,75.656983 a 5.9096265,5.9096265 0 0 0 -4.51393,2.165536 5.9096265,5.9096265 0 0 0 0.82821,8.316164 l 12.12378,9.927767 a 5.9096265,5.9096265 0 0 0 8.31617,-0.82821 5.9096265,5.9096265 0 0 0 -0.82822,-8.317956 L 122.71716,76.99431 a 5.9096265,5.9096265 0 0 0 -3.80224,-1.337327 z"
         id="path929" />
      <path
         style="fill:#f87702;fill-opacity:1;stroke:#e36c00;stroke-width:5.5;stroke-linecap:round;stroke-linejoin:miter;stroke-miterlimit:4;stroke-dasharray:none;stroke-opacity:1"
         d="m 116.39187,84.718743 2.79877,-3.418068"
         id="path933" />
      <path
         id="path935"
         d="m 124.84658,86.75992 2.79878,-3.418067"
         style="fill:#f87702;fill-opacity:1;stroke:#e36c00;stroke-width:5.5;stroke-linecap:round;stroke-linejoin:miter;stroke-miterlimit:4;stroke-dasharray:none;stroke-opacity:1" />
      <path
         style="fill:#f87702;fill-opacity:1;stroke:#e36c00;stroke-width:5.5;stroke-linecap:round;stroke-linejoin:miter;stroke-miterlimit:4;stroke-dasharray:none;stroke-opacity:1"
         d="m 128.51555,94.645832 2.79877,-3.418068"
         id="path937" />
      <g
         style="fill:none;fill-opacity:1"
         id="g1022"
         transform="matrix(0.91784338,0,0,0.91784338,-164.56065,61.485983)">
        <g
           style="opacity:1;fill:none;fill-opacity:1;stroke:#f88319;stroke-width:2.4;stroke-miterlimit:4;stroke-dasharray:none;stroke-opacity:1"
           id="g1009">
          <path
             id="path1013"
             d="m 308.84961,15.439453 a 6.4386001,6.4386001 0 0 0 -4.91797,2.359375 6.4386001,6.4386001 0 0 0 0.90234,9.060547 l 13.20899,10.816406 a 6.4386001,6.4386001 0 0 0 9.06055,-0.902343 6.4386001,6.4386001 0 0 0 -0.90235,-9.0625 L 312.99219,16.896484 a 6.4386001,6.4386001 0 0 0 -4.14258,-1.457031 z"
             style="color:#000000;font-style:normal;font-variant:normal;font-weight:normal;font-stretch:normal;font-size:medium;line-height:normal;font-family:sans-serif;font-variant-ligatures:normal;font-variant-position:normal;font-variant-caps:normal;font-variant-numeric:normal;font-variant-alternates:normal;font-variant-east-asian:normal;font-feature-settings:normal;font-variation-settings:normal;text-indent:0;text-align:start;text-decoration:none;text-decoration-line:none;text-decoration-style:solid;text-decoration-color:#000000;letter-spacing:normal;word-spacing:normal;text-transform:none;writing-mode:lr-tb;direction:ltr;text-orientation:mixed;dominant-baseline:auto;baseline-shift:baseline;text-anchor:start;white-space:normal;shape-padding:0;shape-margin:0;inline-size:0;clip-rule:nonzero;display:inline;overflow:visible;visibility:visible;isolation:auto;mix-blend-mode:normal;color-interpolation:sRGB;color-interpolation-filters:linearRGB;solid-color:#000000;solid-opacity:1;vector-effect:none;fill:none;fill-opacity:1;fill-rule:nonzero;stroke:#f88319;stroke-width:2.4;stroke-linecap:round;stroke-linejoin:miter;stroke-miterlimit:4;stroke-dasharray:none;stroke-dashoffset:0;stroke-opacity:1;color-rendering:auto;image-rendering:auto;shape-rendering:auto;text-rendering:auto;enable-background:accumulate;stop-color:#000000;stop-opacity:1" />
        </g>
        <g
           style="fill:none;fill-opacity:1;stroke:#fa841c;stroke-opacity:1"
           id="g1000"
           transform="matrix(1.0197696,-1.2454166,1.2454166,1.0197696,45.364748,93.097492)">
          <path
             id="path994"
             d="m 135.20355,98.649319 h 2.99018"
             style="fill:none;fill-opacity:1;stroke:#fa841c;stroke-width:2.48448;stroke-linecap:round;stroke-linejoin:miter;stroke-miterlimit:4;stroke-dasharray:none;stroke-opacity:1" />
          <path
             style="fill:none;fill-opacity:1;stroke:#fa841c;stroke-width:2.48448;stroke-linecap:round;stroke-linejoin:miter;stroke-miterlimit:4;stroke-dasharray:none;stroke-opacity:1"
             d="m 137.76008,103.95231 h 2.99018"
             id="path996" />
          <path
             id="path998"
             d="m 135.20355,109.25531 h 2.99018"
             style="fill:none;fill-opacity:1;stroke:#fa841c;stroke-width:2.48448;stroke-linecap:round;stroke-linejoin:miter;stroke-miterlimit:4;stroke-dasharray:none;stroke-opacity:1" />
        </g>
      </g>
    </g>
    <circle
       style="opacity:1;fill:#fac492;fill-opacity:1;stroke:none;stroke-width:3.57556;stroke-linecap:round;stroke-linejoin:round;stroke-miterlimit:4;stroke-dasharray:none;stroke-opacity:0.995968"
       id="circle1033"
       cx="68.797188"
       cy="130.5248"
       r="3.4462709" />
    <circle
       r="2.2106934"
       cy="134.89311"
       cx="85.143242"
       id="circle1035"
       style="opacity:1;fill:#fac492;fill-opacity:1;stroke:none;stroke-width:2.29364;stroke-linecap:round;stroke-linejoin:round;stroke-miterlimit:4;stroke-dasharray:none;stroke-opacity:0.995968" />
    <circle
       style="opacity:1;fill:#fac492;fill-opacity:1;stroke:none;stroke-width:1.36711;stroke-linecap:round;stroke-linejoin:round;stroke-miterlimit:4;stroke-dasharray:none;stroke-opacity:0.995968"
       id="circle1037"
       cx="88.220161"
       cy="146.34462"
       r="1.3176782" />
    <circle
       r="16.632414"
       cy="110.35088"
       cx="102.47707"
       id="path28"
       style="opacity:1;fill:#ff3a33;fill-opacity:1;stroke:#b53840;stroke-width:2;stroke-linecap:round;stroke-linejoin:round;stroke-opacity:1" />
    <circle
       style="opacity:1;fill:#fcf31c;fill-opacity:1;stroke:#f6801a;stroke-width:2;stroke-linecap:round;stroke-linejoin:round;stroke-opacity:1"
       id="circle939"
       cx="102.47707"
       cy="110.35088"
       r="9.3562603" />
    <rect
       style="opacity:1;fill:none;fill-opacity:1;fill-rule:nonzero;stroke:#219ce9;stroke-width:5.54622;stroke-linecap:round;stroke-linejoin:round;stroke-miterlimit:4;stroke-dasharray:none;stroke-opacity:1"
       id="rect997"
       width="176.39789"
       height="176.39789"
       x="14.339777"
       y="22.151897"
       ry="18" />
    <rect
       style="opacity:1;fill:#35b6ef;fill-opacity:1;fill-rule:nonzero;stroke:none;stroke-width:5.54622;stroke-linecap:round;stroke-linejoin:round;stroke-miterlimit:4;stroke-dasharray:none;stroke-opacity:1"
       id="rect42"
       width="176.39789"
       height="176.39789"
       x="-226.96022"
       y="22.151897"
       ry="18" />
    <circle
       r="70.695305"
       cy="110.35084"
       cx="-138.76128"
       style="opacity:1;fill:#fe5e49;fill-opacity:1;stroke:#fe5e49;stroke-width:16;stroke-linecap:round;stroke-linejoin:round;stroke-miterlimit:4;stroke-dasharray:none;stroke-opacity:1"
       id="circle44" />
    <circle
       id="circle46"
       style="opacity:1;fill:#fffbbe;fill-opacity:1;stroke:#fe5e49;stroke-width:8.50882;stroke-linecap:round;stroke-linejoin:round;stroke-miterlimit:4;stroke-dasharray:none;stroke-opacity:1"
       cx="-138.76128"
       cy="110.35084"
       r="70.369637" />
    <path
       d="m -112.99517,58.728715 a 4.1622247,4.1622247 0 0 0 -3.67213,2.17351 4.1622247,4.1622247 0 0 0 1.66812,5.644615 c 16.621036,9.040127 26.686489,26.685351 26.007711,45.5936 -0.577141,16.07719 -8.836972,30.684 -21.886521,39.50818 l -5.96242,-7.99486 c 10.79992,-7.15596 17.942574,-19.41591 17.942568,-33.30236 a 4.1622247,4.1622247 0 0 0 -4.162018,-4.16202 4.1622247,4.1622247 0 0 0 -4.16202,4.16202 c 0,3.17145 -0.46525,6.23041 -1.32757,9.11469 l -20.72328,-11.96413 a 4.1622247,4.1622247 0 0 0 -2.13062,-0.55655 4.1622247,4.1622247 0 0 0 -3.55482,2.07997 4.1622247,4.1622247 0 0 0 1.52342,5.68545 l 21.44262,12.3796 c -5.57214,8.93528 -15.48609,14.86059 -26.83144,14.86059 a 4.1622247,4.1622247 0 0 0 -4.16202,4.16202 4.1622247,4.1622247 0 0 0 4.16202,4.16254 c 5.1121,0 10.0037,-0.96887 14.50196,-2.73058 l 6.11952,8.2057 c -17.22614,7.82423 -37.37085,5.23213 -52.05677,-6.69623 a 4.1622247,4.1622247 0 0 0 -5.85546,0.60771 4.1622247,4.1622247 0 0 0 0.60513,5.85546 c 17.1233,13.90808 40.66745,16.93387 60.75237,7.81037 20.084919,-9.12348 33.292295,-28.84467 34.083706,-50.89043 0.791411,-22.045765 -10.968482,-42.662768 -30.347506,-53.202952 a 4.1622247,4.1622247 0 0 0 -1.97455,-0.505913 z"
       style="color:#000000;font-style:normal;font-variant:normal;font-weight:normal;font-stretch:normal;font-size:medium;line-height:normal;font-family:sans-serif;font-variant-ligatures:normal;font-variant-position:normal;font-variant-caps:normal;font-variant-numeric:normal;font-variant-alternates:normal;font-variant-east-asian:normal;font-feature-settings:normal;font-variation-settings:normal;text-indent:0;text-align:start;text-decoration:none;text-decoration-line:none;text-decoration-style:solid;text-decoration-color:#000000;letter-spacing:normal;word-spacing:normal;text-transform:none;writing-mode:lr-tb;direction:ltr;text-orientation:mixed;dominant-baseline:auto;baseline-shift:baseline;text-anchor:start;white-space:normal;shape-padding:0;shape-margin:0;inline-size:0;clip-rule:nonzero;display:inline;overflow:visible;visibility:visible;opacity:1;isolation:auto;mix-blend-mode:normal;color-interpolation:sRGB;color-interpolation-filters:linearRGB;solid-color:#000000;solid-opacity:1;vector-effect:none;fill:#7eb11f;fill-opacity:1;fill-rule:nonzero;stroke:#7eb11f;stroke-width:2;stroke-linecap:round;stroke-linejoin:round;stroke-miterlimit:4;stroke-dasharray:none;stroke-dashoffset:0;stroke-opacity:1;color-rendering:auto;image-rendering:auto;shape-rendering:auto;text-rendering:auto;enable-background:accumulate;stop-color:#000000;stop-opacity:1"
       id="path48" />
    <path
       d="m -138.82357,52.164257 c -18.08642,3e-6 -35.15172,8.414541 -46.16204,22.763469 -11.01032,14.348928 -14.72391,33.012034 -10.0428,50.482184 a 4.1622247,4.1622247 0 0 0 5.09737,2.94349 4.1622247,4.1622247 0 0 0 2.94349,-5.09736 c -4.01308,-14.97699 -0.83337,-30.958691 8.60567,-43.259889 3.62769,-4.7277 8.02181,-8.699087 12.93513,-11.801864 l 5.97121,8.006747 c -11.54015,7.009836 -19.27169,19.700768 -19.27169,34.150366 a 4.1622247,4.1622247 0 0 0 4.16202,4.16202 4.1622247,4.1622247 0 0 0 0.44028,-0.0232 4.1622247,4.1622247 0 0 0 0.003,-5.2e-4 4.1622247,4.1622247 0 0 0 0.92604,-0.13591 l 24.99796,-6.64094 a 4.1622247,4.1622247 0 0 0 2.95279,-5.09167 4.1622247,4.1622247 0 0 0 -4.05453,-3.093872 4.1622247,4.1622247 0 0 0 -1.03508,0.14056 l -19.59777,5.204852 c 2.5813,-14.873843 15.49679,-26.122437 31.12885,-26.12244 a 4.1622247,4.1622247 0 0 0 4.16202,-4.162536 4.1622247,4.1622247 0 0 0 -4.16202,-4.16202 c -4.5338,0 -8.89361,0.762939 -12.95993,2.16421 l -6.17534,-8.280633 c 5.98888,-2.489091 12.47903,-3.820954 19.13527,-3.820954 a 4.1622247,4.1622247 0 0 0 4.16202,-4.16202 4.1622247,4.1622247 0 0 0 -4.16202,-4.16202 z"
       style="color:#000000;font-style:normal;font-variant:normal;font-weight:normal;font-stretch:normal;font-size:medium;line-height:normal;font-family:sans-serif;font-variant-ligatures:normal;font-variant-position:normal;font-variant-caps:normal;font-variant-numeric:normal;font-variant-alternates:normal;font-variant-east-asian:normal;font-feature-settings:normal;font-variation-settings:normal;text-indent:0;text-align:start;text-decoration:none;text-decoration-line:none;text-decoration-style:solid;text-decoration-color:#000000;letter-spacing:normal;word-spacing:normal;text-transform:none;writing-mode:lr-tb;direction:ltr;text-orientation:mixed;dominant-baseline:auto;baseline-shift:baseline;text-anchor:start;white-space:normal;shape-padding:0;shape-margin:0;inline-size:0;clip-rule:nonzero;display:inline;overflow:visible;visibility:visible;opacity:1;isolation:auto;mix-blend-mode:normal;color-interpolation:sRGB;color-interpolation-filters:linearRGB;solid-color:#000000;solid-opacity:1;vector-effect:none;fill:#3ac7cf;fill-opacity:1;fill-rule:nonzero;stroke:#3ac7cf;stroke-width:2;stroke-linecap:round;stroke-linejoin:round;stroke-miterlimit:4;stroke-dasharray:none;stroke-dashoffset:0;stroke-opacity:1;color-rendering:auto;image-rendering:auto;shape-rendering:auto;text-rendering:auto;enable-background:accumulate;stop-color:#000000;stop-opacity:1"
       id="path50" />
    <circle
       style="opacity:1;fill:#e97b3b;fill-opacity:1;stroke:#e97b3b;stroke-width:2;stroke-linecap:round;stroke-linejoin:round;stroke-miterlimit:4;stroke-dasharray:none;stroke-opacity:1"
       id="circle52"
       cx="-172.50281"
       cy="130.5248"
       r="7.6743064" />
    <path
       d="m -151.18123,134.89311 a 4.9755249,4.9755249 0 0 1 -4.97553,4.97553 4.9755249,4.9755249 0 0 1 -4.97552,-4.97553 4.9755249,4.9755249 0 0 1 4.97552,-4.97552 4.9755249,4.9755249 0 0 1 4.97553,4.97552"
       style="opacity:1;fill:#e97b3b;fill-opacity:1;stroke:#e97b3b;stroke-width:2;stroke-linecap:round;stroke-linejoin:round;stroke-miterlimit:4;stroke-dasharray:none;stroke-opacity:1"
       id="path54" />
    <path
       d="m -149.8154,146.34462 a 3.2644417,3.2644417 0 0 1 -3.26444,3.26444 3.2644417,3.2644417 0 0 1 -3.26444,-3.26444 3.2644417,3.2644417 0 0 1 3.26444,-3.26444 3.2644417,3.2644417 0 0 1 3.26444,3.26444"
       style="opacity:1;fill:#e97b3b;fill-opacity:1;stroke:#e97b3b;stroke-width:2;stroke-linecap:round;stroke-linejoin:round;stroke-miterlimit:4;stroke-dasharray:none;stroke-opacity:1"
       id="path56" />
    <g
       style="stroke:#fa841c;stroke-opacity:1"
       transform="translate(-241.3)"
       id="g82">
      <path
         id="path58"
         d="m 118.9731,81.566343 12.12367,9.927088"
         style="color:#000000;font-style:normal;font-variant:normal;font-weight:normal;font-stretch:normal;font-size:medium;line-height:normal;font-family:sans-serif;font-variant-ligatures:normal;font-variant-position:normal;font-variant-caps:normal;font-variant-numeric:normal;font-variant-alternates:normal;font-variant-east-asian:normal;font-feature-settings:normal;font-variation-settings:normal;text-indent:0;text-align:start;text-decoration:none;text-decoration-line:none;text-decoration-style:solid;text-decoration-color:#000000;letter-spacing:normal;word-spacing:normal;text-transform:none;writing-mode:lr-tb;direction:ltr;text-orientation:mixed;dominant-baseline:auto;baseline-shift:baseline;text-anchor:start;white-space:normal;shape-padding:0;shape-margin:0;inline-size:0;clip-rule:nonzero;display:inline;overflow:visible;visibility:visible;isolation:auto;mix-blend-mode:normal;color-interpolation:sRGB;color-interpolation-filters:linearRGB;solid-color:#000000;solid-opacity:1;vector-effect:none;fill:#f87702;fill-opacity:1;fill-rule:nonzero;stroke:#fa841c;stroke-width:5.12346;stroke-linecap:round;stroke-linejoin:miter;stroke-miterlimit:4;stroke-dasharray:none;stroke-dashoffset:0;stroke-opacity:1;color-rendering:auto;image-rendering:auto;shape-rendering:auto;text-rendering:auto;enable-background:accumulate;stop-color:#000000" />
      <path
         id="path60"
         d="m 118.91492,75.656983 a 5.9096265,5.9096265 0 0 0 -4.51393,2.165536 5.9096265,5.9096265 0 0 0 0.82821,8.316164 l 12.12378,9.927767 a 5.9096265,5.9096265 0 0 0 8.31617,-0.82821 5.9096265,5.9096265 0 0 0 -0.82822,-8.317956 L 122.71716,76.99431 a 5.9096265,5.9096265 0 0 0 -3.80224,-1.337327 z"
         style="color:#000000;font-style:normal;font-variant:normal;font-weight:normal;font-stretch:normal;font-size:medium;line-height:normal;font-family:sans-serif;font-variant-ligatures:normal;font-variant-position:normal;font-variant-caps:normal;font-variant-numeric:normal;font-variant-alternates:normal;font-variant-east-asian:normal;font-feature-settings:normal;font-variation-settings:normal;text-indent:0;text-align:start;text-decoration:none;text-decoration-line:none;text-decoration-style:solid;text-decoration-color:#000000;letter-spacing:normal;word-spacing:normal;text-transform:none;writing-mode:lr-tb;direction:ltr;text-orientation:mixed;dominant-baseline:auto;baseline-shift:baseline;text-anchor:start;white-space:normal;shape-padding:0;shape-margin:0;inline-size:0;clip-rule:nonzero;display:inline;overflow:visible;visibility:visible;isolation:auto;mix-blend-mode:normal;color-interpolation:sRGB;color-interpolation-filters:linearRGB;solid-color:#000000;solid-opacity:1;vector-effect:none;fill:#fffea2;fill-opacity:1;fill-rule:nonzero;stroke:#fa841c;stroke-width:4;stroke-linecap:round;stroke-linejoin:miter;stroke-miterlimit:4;stroke-dasharray:none;stroke-dashoffset:0;stroke-opacity:1;color-rendering:auto;image-rendering:auto;shape-rendering:auto;text-rendering:auto;enable-background:accumulate;stop-color:#000000" />
      <path
         id="path62"
         d="m 116.39187,84.718743 2.79877,-3.418068"
         style="fill:#f87702;fill-opacity:1;stroke:#fa841c;stroke-width:5.5;stroke-linecap:round;stroke-linejoin:miter;stroke-miterlimit:4;stroke-dasharray:none;stroke-opacity:1" />
      <path
         style="fill:#f87702;fill-opacity:1;stroke:#fa841c;stroke-width:5.5;stroke-linecap:round;stroke-linejoin:miter;stroke-miterlimit:4;stroke-dasharray:none;stroke-opacity:1"
         d="m 124.84658,86.75992 2.79878,-3.418067"
         id="path64" />
      <path
         id="path66"
         d="m 128.51555,94.645832 2.79877,-3.418068"
         style="fill:#f87702;fill-opacity:1;stroke:#fa841c;stroke-width:5.5;stroke-linecap:round;stroke-linejoin:miter;stroke-miterlimit:4;stroke-dasharray:none;stroke-opacity:1" />
      <g
         transform="matrix(0.91784338,0,0,0.91784338,-164.56065,61.485983)"
         id="g80"
         style="fill:none;fill-opacity:1;stroke:#fa841c;stroke-opacity:1">
        <g
           id="g70"
           style="opacity:1;fill:none;fill-opacity:1;stroke:#fa841c;stroke-width:2.4;stroke-miterlimit:4;stroke-dasharray:none;stroke-opacity:1">
          <path
             style="color:#000000;font-style:normal;font-variant:normal;font-weight:normal;font-stretch:normal;font-size:medium;line-height:normal;font-family:sans-serif;font-variant-ligatures:normal;font-variant-position:normal;font-variant-caps:normal;font-variant-numeric:normal;font-variant-alternates:normal;font-variant-east-asian:normal;font-feature-settings:normal;font-variation-settings:normal;text-indent:0;text-align:start;text-decoration:none;text-decoration-line:none;text-decoration-style:solid;text-decoration-color:#000000;letter-spacing:normal;word-spacing:normal;text-transform:none;writing-mode:lr-tb;direction:ltr;text-orientation:mixed;dominant-baseline:auto;baseline-shift:baseline;text-anchor:start;white-space:normal;shape-padding:0;shape-margin:0;inline-size:0;clip-rule:nonzero;display:inline;overflow:visible;visibility:visible;isolation:auto;mix-blend-mode:normal;color-interpolation:sRGB;color-interpolation-filters:linearRGB;solid-color:#000000;solid-opacity:1;vector-effect:none;fill:none;fill-opacity:1;fill-rule:nonzero;stroke:#fa841c;stroke-width:2.4;stroke-linecap:round;stroke-linejoin:miter;stroke-miterlimit:4;stroke-dasharray:none;stroke-dashoffset:0;stroke-opacity:1;color-rendering:auto;image-rendering:auto;shape-rendering:auto;text-rendering:auto;enable-background:accumulate;stop-color:#000000;stop-opacity:1"
             d="m 308.84961,15.439453 a 6.4386001,6.4386001 0 0 0 -4.91797,2.359375 6.4386001,6.4386001 0 0 0 0.90234,9.060547 l 13.20899,10.816406 a 6.4386001,6.4386001 0 0 0 9.06055,-0.902343 6.4386001,6.4386001 0 0 0 -0.90235,-9.0625 L 312.99219,16.896484 a 6.4386001,6.4386001 0 0 0 -4.14258,-1.457031 z"
             id="path68" />
        </g>
        <g
           transform="matrix(1.0197696,-1.2454166,1.2454166,1.0197696,45.364748,93.097492)"
           id="g78"
           style="fill:none;fill-opacity:1;stroke:#fa841c;stroke-opacity:1">
          <path
             style="fill:none;fill-opacity:1;stroke:#fa841c;stroke-width:2.48448;stroke-linecap:round;stroke-linejoin:miter;stroke-miterlimit:4;stroke-dasharray:none;stroke-opacity:1"
             d="m 135.20355,98.649319 h 2.99018"
             id="path72" />
          <path
             id="path74"
             d="m 137.76008,103.95231 h 2.99018"
             style="fill:none;fill-opacity:1;stroke:#fa841c;stroke-width:2.48448;stroke-linecap:round;stroke-linejoin:miter;stroke-miterlimit:4;stroke-dasharray:none;stroke-opacity:1" />
          <path
             style="fill:none;fill-opacity:1;stroke:#fa841c;stroke-width:2.48448;stroke-linecap:round;stroke-linejoin:miter;stroke-miterlimit:4;stroke-dasharray:none;stroke-opacity:1"
             d="m 135.20355,109.25531 h 2.99018"
             id="path76" />
        </g>
      </g>
    </g>
    <circle
       r="3.4462709"
       cy="130.5248"
       cx="-172.50281"
       id="circle84"
       style="opacity:1;fill:#fac492;fill-opacity:1;stroke:none;stroke-width:3.57556;stroke-linecap:round;stroke-linejoin:round;stroke-miterlimit:4;stroke-dasharray:none;stroke-opacity:0.995968" />
    <circle
       style="opacity:1;fill:#fac492;fill-opacity:1;stroke:none;stroke-width:2.29364;stroke-linecap:round;stroke-linejoin:round;stroke-miterlimit:4;stroke-dasharray:none;stroke-opacity:0.995968"
       id="circle86"
       cx="-156.15675"
       cy="134.89311"
       r="2.2106934" />
    <circle
       r="1.3176782"
       cy="146.34462"
       cx="-153.07983"
       id="circle88"
       style="opacity:1;fill:#fac492;fill-opacity:1;stroke:none;stroke-width:1.36711;stroke-linecap:round;stroke-linejoin:round;stroke-miterlimit:4;stroke-dasharray:none;stroke-opacity:0.995968" />
    <circle
       style="opacity:1;fill:#ff3a33;fill-opacity:1;stroke:#ff3a33;stroke-width:2;stroke-linecap:round;stroke-linejoin:round;stroke-opacity:1"
       id="circle90"
       cx="-138.82292"
       cy="110.35088"
       r="16.632414" />
    <circle
       r="9.3562603"
       cy="110.35088"
       cx="-138.82292"
       id="circle92"
       style="opacity:1;fill:#fcf31c;fill-opacity:1;stroke:#f6801a;stroke-width:2;stroke-linecap:round;stroke-linejoin:round;stroke-opacity:1" />
    <rect
       ry="18"
       y="22.151897"
       x="-226.96022"
       height="176.39789"
       width="176.39789"
       id="rect94"
       style="opacity:1;fill:none;fill-opacity:1;fill-rule:nonzero;stroke:#35b6ef;stroke-width:5.54622;stroke-linecap:round;stroke-linejoin:round;stroke-miterlimit:4;stroke-dasharray:none;stroke-opacity:1" />
  </g>
</svg>
