<?xml version="1.0" encoding="UTF-8" standalone="no"?>
<svg
   xmlns:dc="http://purl.org/dc/elements/1.1/"
   xmlns:cc="http://creativecommons.org/ns#"
   xmlns:rdf="http://www.w3.org/1999/02/22-rdf-syntax-ns#"
   xmlns:svg="http://www.w3.org/2000/svg"
   xmlns="http://www.w3.org/2000/svg"
   xmlns:sodipodi="http://sodipodi.sourceforge.net/DTD/sodipodi-0.dtd"
   xmlns:inkscape="http://www.inkscape.org/namespaces/inkscape"
   sodipodi:docname="materi.svg"
   inkscape:version="1.0 (4035a4fb49, 2020-05-01)"
   id="svg2575"
   version="1.1"
   viewBox="0 0 69.547623 69.547623"
   height="69.547623mm"
   width="69.547623mm">
  <defs
     id="defs2569" />
  <sodipodi:namedview
     fit-margin-bottom="0"
     fit-margin-right="0"
     fit-margin-left="0"
     fit-margin-top="0"
     inkscape:window-maximized="0"
     inkscape:window-y="0"
     inkscape:window-x="26"
     inkscape:window-height="728"
     inkscape:window-width="1274"
     inkscape:snap-intersection-paths="true"
     showgrid="false"
     inkscape:document-rotation="0"
     inkscape:current-layer="layer1"
     inkscape:document-units="mm"
     inkscape:cy="142.20062"
     inkscape:cx="74.706584"
     inkscape:zoom="0.9899495"
     inkscape:pageshadow="2"
     inkscape:pageopacity="0.0"
     borderopacity="1.0"
     bordercolor="#666666"
     pagecolor="#ffffff"
     id="base" />
  <metadata
     id="metadata2572">
    <rdf:RDF>
      <cc:Work
         rdf:about="">
        <dc:format>image/svg+xml</dc:format>
        <dc:type
           rdf:resource="http://purl.org/dc/dcmitype/StillImage" />
        <dc:title />
      </cc:Work>
    </rdf:RDF>
  </metadata>
  <g
     transform="translate(-36.285713,-112.6369)"
     id="layer1"
     inkscape:groupmode="layer"
     inkscape:label="Layer 1">
    <g
       id="g1968"
       transform="matrix(1.6127916,0,0,1.6127916,87.81165,-134.30119)">
      <path
         id="path1875"
         d="m -29.822348,163.24497 v 27.33082 h 14.037473 c 0.751598,1.34373 2.824227,2.27761 5.397839,2.27761 2.5736112,0 4.6462406,-0.93388 5.3978384,-2.27761 h 14.037473 v -27.33082 z"
         style="fill:#fe5e49;fill-opacity:1;stroke-width:0.124684" />
      <path
         id="path1877"
         d="m 9.0482754,163.24497 v 27.33082 h -14.037473 c -0.7515978,1.34373 -2.8242272,2.27761 -5.3978384,2.27761 v -29.60843 z"
         style="fill:#fe5e49;fill-opacity:1;stroke-width:0.124684" />
      <path
         style="fill:#ffffff;stroke-width:0.142888"
         d="m -8.3251559,156.49354 -2.0618801,2.06187 -2.061881,-2.06187 h -14.990714 v 31.32115 H -13.5453 l 3.158264,3.15811 3.1582631,-3.15811 H 6.6655577 v -31.32115 z"
         id="path292" />
      <path
         id="path1879"
         d="m -8.5878399,158.68987 -1.7991961,1.79919 -1.799197,-1.79919 h -13.080894 v 27.33083 h 12.12419 l 2.755901,2.75577 2.7558998,-2.75577 H 4.4930541 v -27.33083 z"
         style="fill:#e7e7e7;stroke-width:0.124684" />
      <polygon
         style="fill:#ffffff"
         points="256,133.43 270.43,119 375.342,119 375.342,338.2 278.103,338.2 256,360.302 "
         id="polygon294"
         transform="matrix(0.14288845,0,0,0.14288845,-46.966481,139.48981)" />
      <polygon
         transform="matrix(0.12468444,0,0,0.12468444,-42.306253,143.85242)"
         id="polygon1881"
         points="278.103,338.2 256,360.302 256,133.43 270.43,119 375.342,119 375.342,338.2 "
         style="fill:#d3d3d8" />
    </g>
  </g>
</svg>
