<?xml version="1.0" encoding="UTF-8" standalone="no"?>
<svg
   xmlns:dc="http://purl.org/dc/elements/1.1/"
   xmlns:cc="http://creativecommons.org/ns#"
   xmlns:rdf="http://www.w3.org/1999/02/22-rdf-syntax-ns#"
   xmlns:svg="http://www.w3.org/2000/svg"
   xmlns="http://www.w3.org/2000/svg"
   xmlns:sodipodi="http://sodipodi.sourceforge.net/DTD/sodipodi-0.dtd"
   xmlns:inkscape="http://www.inkscape.org/namespaces/inkscape"
   inkscape:version="1.0 (4035a4fb49, 2020-05-01)"
   sodipodi:docname="question.svg"
   version="1.1"
   width="512"
   viewBox="0 0 512 512"
   height="512"
   enable-background="new 0 0 512 512"
   id="Capa_1">
  <metadata
     id="metadata15">
    <rdf:RDF>
      <cc:Work
         rdf:about="">
        <dc:format>image/svg+xml</dc:format>
        <dc:type
           rdf:resource="http://purl.org/dc/dcmitype/StillImage" />
      </cc:Work>
    </rdf:RDF>
  </metadata>
  <defs
     id="defs13" />
  <sodipodi:namedview
     inkscape:current-layer="Capa_1"
     inkscape:window-maximized="1"
     inkscape:window-y="-8"
     inkscape:window-x="-8"
     inkscape:cy="393.87841"
     inkscape:cx="224.79076"
     inkscape:zoom="0.66760746"
     showgrid="false"
     id="namedview11"
     inkscape:window-height="705"
     inkscape:window-width="1366"
     inkscape:pageshadow="2"
     inkscape:pageopacity="0"
     guidetolerance="10"
     gridtolerance="10"
     objecttolerance="10"
     borderopacity="1"
     bordercolor="#666666"
     pagecolor="#ffffff" />
  <g
     style="fill:#ffffff"
     id="g8">
    <path
       style="fill:#ffffff"
       id="path2"
       d="m511.552 493.362-29.552-118.207v-240.155c0-8.284-6.716-15-15-15h-76.838c-7.486-67.405-64.793-120-134.162-120s-126.676 52.595-134.162 120h-76.838c-8.284 0-15 6.716-15 15v240.155l-29.552 118.207c-1.121 4.481-.114 9.229 2.729 12.869 2.843 3.641 7.204 5.769 11.823 5.769h482c4.619 0 8.98-2.128 11.823-5.769 2.843-3.64 3.85-8.388 2.729-12.869zm-255.552-463.362c57.897 0 105 47.103 105 105 0 37.019-19.007 70.548-50.845 89.69-22.397 13.467-40.952 32.221-54.155 54.38-13.202-22.158-31.758-40.914-54.155-54.38-31.838-19.142-50.845-52.671-50.845-89.69 0-57.897 47.103-105 105-105zm-196 120h61.854c4.709 42.071 28.737 78.878 64.532 100.4 43.762 26.311 54.668 68.032 55.383 69.338 2.04 6.128 7.773 10.262 14.231 10.262s12.191-4.134 14.231-10.261c.343-.627 11.247-42.801 55.383-69.338 35.792-21.521 59.819-58.293 64.532-100.4h61.854v212h-392zm125.212 332 7.5-30h126.576l7.5 30zm172.5 0-12.16-48.638c-1.669-6.677-7.669-11.362-14.552-11.362h-150c-6.883 0-12.883 4.685-14.552 11.362l-12.159 48.638h-120.077l22.5-90h398.577l22.5 90z" />
    <path
       style="fill:#ffffff"
       id="path4"
       d="m226 120c8.284 0 15-6.716 15-15 0-8.271 6.729-15 15-15s15 6.729 15 15c0 6.322-3.994 12-9.939 14.129-11.999 4.299-20.061 15.748-20.061 28.49v2.381c0 8.284 6.716 15 15 15s15-6.716 15-15v-2.381c0-.108.073-.209.178-.247 17.838-6.389 29.822-23.417 29.822-42.372 0-24.813-20.187-45-45-45s-45 20.187-45 45c0 8.284 6.716 15 15 15z" />
    <circle
       style="fill:#ffffff"
       id="circle6"
       r="15"
       cy="195"
       cx="256" />
  </g>
</svg>
